<?xml version="1.0" encoding="UTF-8" standalone="no"?>
<!-- Created with Inkscape (http://www.inkscape.org/) -->

<svg
   xmlns:dc="http://purl.org/dc/elements/1.1/"
   xmlns:cc="http://creativecommons.org/ns#"
   xmlns:rdf="http://www.w3.org/1999/02/22-rdf-syntax-ns#"
   xmlns:svg="http://www.w3.org/2000/svg"
   xmlns="http://www.w3.org/2000/svg"
   xmlns:sodipodi="http://sodipodi.sourceforge.net/DTD/sodipodi-0.dtd"
   xmlns:inkscape="http://www.inkscape.org/namespaces/inkscape"
   width="300"
   height="300"
   viewBox="0 0 79.374999 79.374999"
   version="1.1"
   id="svg8"
   inkscape:version="0.92.4 5da689c313, 2019-01-14"
   sodipodi:docname="kulinari-green.svg"
   inkscape:export-filename="/home/marc/kulinari-logo.png"
   inkscape:export-xdpi="100.26316"
   inkscape:export-ydpi="100.26316">
  <defs
     id="defs2">
    <clipPath
       clipPathUnits="userSpaceOnUse"
       id="clipPath1386">
      <g
         id="use1388"
         inkscape:label="Clip">
        <path
           style="fill:#000000;stroke-width:1.95185184"
           d="m 19.065465,269.63306 c 0.865855,-1.87866 1.904345,-9.19421 2.307752,-16.25678 0.666499,-11.66856 1.237644,-13.13887 6.255143,-16.10278 9.136354,-5.39698 25.991102,-3.05829 20.138488,2.79432 -1.78531,1.78531 -3.720612,1.73265 -8.459326,-0.23019 -6.4778,-2.68319 -9.586321,-0.8486 -9.65769,5.6998 -0.02288,2.09829 0.875144,1.92328 3.823803,-0.74522 3.688476,-3.33802 4.07954,-3.33956 9.121717,-0.0358 4.866738,3.18881 5.009307,3.64092 1.871619,5.93526 -3.202231,2.34153 -3.155793,2.95516 0.812285,10.73324 3.404986,6.67432 3.709408,8.56619 1.594136,9.90692 -4.131452,2.61864 -4.740273,2.18087 -8.470116,-6.09044 -3.980958,-8.82819 -4.921293,-9.2496 -9.456745,-4.23798 -4.069303,4.49653 -4.086678,6.18983 -0.06352,6.18983 2.593601,0 2.726983,0.52991 0.736931,2.92778 -1.336411,1.61027 -4.612097,2.92777 -7.279302,2.92777 -3.917027,0 -4.546765,-0.65676 -3.275176,-3.41574 z m 18.17271,-16.85076 c 1.719209,-2.07152 1.592118,-2.9487 -0.546109,-3.76922 -3.238297,-1.24265 -5.120271,0.17853 -5.120271,3.86659 0,3.37726 2.82295,3.32875 5.66638,-0.0974 z m 34.671891,18.96527 c -0.715679,-0.71568 -1.301235,-8.58978 -1.301235,-17.49799 0,-14.01563 0.508411,-16.46886 3.775387,-18.21729 4.640246,-2.48338 6.56357,-2.58572 5.13435,-0.2732 -0.59395,0.96104 0.185582,2.23295 1.732313,2.82648 4.163652,1.59775 2.918017,15.69905 -1.461269,16.54242 -4.11978,0.7934 -4.342548,6.83926 -0.37338,10.13338 2.245223,1.86337 2.421634,3.08869 0.736932,5.11863 -2.374309,2.86086 -6.127183,3.48348 -8.243098,1.36757 z m 7.482098,-24.07284 c 0.663472,-1.07352 0.27614,-1.95185 -0.860733,-1.95185 -1.136874,0 -2.067045,0.87833 -2.067045,1.95185 0,1.07352 0.38733,1.95185 0.860734,1.95185 0.473404,0 1.403573,-0.87833 2.067044,-1.95185 z"
           id="path1390"
           inkscape:connector-curvature="0" />
      </g>
    </clipPath>
  </defs>
  <sodipodi:namedview
     id="base"
     pagecolor="#ffffff"
     bordercolor="#666666"
     borderopacity="1.0"
     inkscape:pageopacity="0.0"
     inkscape:pageshadow="2"
     inkscape:zoom="2.3"
     inkscape:cx="107.76793"
     inkscape:cy="158.1166"
     inkscape:document-units="mm"
     inkscape:current-layer="layer1"
     showgrid="false"
     units="px"
     inkscape:window-width="1920"
     inkscape:window-height="981"
     inkscape:window-x="0"
     inkscape:window-y="0"
     inkscape:window-maximized="1" />
  <metadata
     id="metadata5">
    <rdf:RDF>
      <cc:Work
         rdf:about="">
        <dc:format>image/svg+xml</dc:format>
        <dc:type
           rdf:resource="http://purl.org/dc/dcmitype/StillImage" />
        <dc:title />
      </cc:Work>
    </rdf:RDF>
  </metadata>
  <g
     inkscape:label="Ebene 1"
     inkscape:groupmode="layer"
     id="layer1"
     transform="translate(0,-217.625)">
    <circle
       style="fill:#208840;fill-opacity:1;stroke-width:0.26458332"
       id="path1366"
       cx="39.6875"
       cy="257.3125"
       r="38" />
    <path
       style="fill:#ffffff;stroke-width:2.32560873"
       d="m 23.235371,271.8579 c 1.882694,-7.2639 1.033238,-6.62444 0.52793,-15.18145 -0.849533,-14.38623 2.608971,-18.07164 6.976865,-20.2971 2.795538,-1.42432 9.092421,-2.87446 15.576166,-2.35596 11.71687,0.93703 14.140537,1.31898 8.894672,6.79619 -2.470766,2.57971 -1.477235,2.57847 -9.950674,-0.46705 -7.861761,-2.82568 -12.321591,-0.75407 -12.406628,7.04826 -0.02724,2.5001 1.840255,2.2563 5.327103,-0.95217 5.230122,-4.81256 4.153895,-4.4931 10.868421,-0.0426 5.778492,3.83004 7.002962,4.18194 2.230012,7.0718 -4.272728,2.58698 -5.176626,3.0444 0.967827,12.78853 6.114289,9.69627 6.732976,8.66433 1.899395,11.80397 -4.922578,3.12009 -4.884341,3.31451 -10.092044,-7.25668 -6.011403,-12.20263 -5.99218,-10.95653 -11.267601,-5.0495 -4.813125,5.38938 -6.711247,7.05434 -0.07568,7.3751 4.548339,0.21987 3.229416,1.4581 1.446647,4.66634 -2.112366,3.80136 -1.650441,3.01786 -7.184578,2.33778 -6.942066,-1.11941 -6.083349,-1.24239 -3.737834,-8.28547 z m 19.430841,-15.88917 c 2.305445,-1.56859 1.464464,-2.08416 -0.650682,-4.49099 -1.973991,-2.2462 -2.663767,-2.24974 -6.055913,1.51107 -3.879523,5.05081 -3.729809,8.49706 6.706595,2.97993 z"
       id="path1406"
       inkscape:connector-curvature="0"
       sodipodi:nodetypes="csssssssssscsssscccsccc" />
  </g>
</svg>
